<?xml version="1.0" ?><!-- Uploaded to: SVG Repo, www.svgrepo.com, Generator: SVG Repo Mixer Tools -->
<svg width="800px" height="800px" viewBox="0 0 64 64" data-name="Layer 1" id="Layer_1" xmlns="http://www.w3.org/2000/svg"><defs><style>.cls-1{fill:#8f6c56;}.cls-2{fill:#838bc5;}.cls-3{fill:#65c8d0;}.cls-4{fill:#f4ecce;}</style></defs><polygon class="cls-1" points="58 61 58 33 42 33 42 61 2 61 2 63 62 63 62 61 58 61"/><path class="cls-2" d="M46,1H5A2,2,0,0,0,5,5H6v6H8V5H49v7h2V5Z"/><circle class="cls-1" cx="7" cy="15" r="5"/><polyline class="cls-3" points="46 61 46 49 54 49 54 61"/><rect class="cls-2" height="40" width="10" x="20" y="9"/><polyline class="cls-1" points="16 55 16 49 34 49 34 55"/><polyline class="cls-2" points="14 61 14 55 36 55 36 61"/><polyline class="cls-1" points="31 5 31 9 19 9 19 5"/><rect class="cls-1" height="4" width="22" x="40" y="12"/><rect class="cls-4" height="4" width="4" x="48" y="37"/></svg>